<svg id="Layer_1" data-name="Layer 1" xmlns="http://www.w3.org/2000/svg" viewBox="0 0 1500 1500"><defs><style>.cls-1{fill:#fff;}.cls-2,.cls-3,.cls-4,.cls-5,.cls-6,.cls-7{fill:none;stroke-miterlimit:10;}.cls-2,.cls-3{stroke:#000;}.cls-2,.cls-4{stroke-width:20px;}.cls-3,.cls-5,.cls-6,.cls-7{stroke-width:14px;}.cls-4,.cls-5,.cls-6,.cls-7{stroke:#f1b300;}.cls-6{stroke-dasharray:30.1 6.02;}.cls-7{stroke-dasharray:18 6;}.cls-8{fill:#f1b300;}</style></defs><title>marek-borowiec</title><rect class="cls-1" width="1500" height="1500"/><polyline class="cls-2" points="760 536 809 536 836 563 836 673 760 673"/><polyline class="cls-3" points="810 535 881 464 881 288"/><circle cx="881" cy="288" r="20"/><circle cx="881" cy="464" r="20"/><circle cx="803" cy="608" r="20"/><line class="cls-3" x1="836.11" y1="749.11" x2="947.11" y2="638.11"/><line class="cls-3" x1="946.95" y1="638" x2="946.95" y2="528.27"/><line class="cls-3" x1="946.95" y1="519.97" x2="946.88" y2="404.53"/><circle cx="947" cy="638" r="20"/><circle cx="947" cy="518" r="20"/><circle cx="947" cy="402" r="20"/><line class="cls-3" x1="836.04" y1="847.96" x2="977.04" y2="988.96"/><line class="cls-3" x1="977.48" y1="989" x2="977.48" y2="1099.13"/><line class="cls-3" x1="977.48" y1="1107.43" x2="977.55" y2="1222.87"/><circle cx="977" cy="989" r="20"/><circle cx="977" cy="1099" r="20"/><circle cx="977" cy="1223" r="20"/><line class="cls-3" x1="827" y1="798.27" x2="983" y2="798.27"/><line class="cls-3" x1="983.31" y1="798.31" x2="1047.85" y2="733.77"/><line class="cls-3" x1="1053.33" y1="728.1" x2="1134.9" y2="646.41"/><circle cx="983" cy="799" r="20"/><circle cx="1053.5" cy="728.5" r="20"/><circle cx="1143.5" cy="638.5" r="20"/><polyline class="cls-2" points="760 1161 805 1161 849.5 1116.5 849.5 968.5 805 924 760 924"/><line class="cls-2" x1="760" y1="1010" x2="850" y2="1010"/><line class="cls-2" x1="760" y1="1076" x2="850" y2="1076"/><path class="cls-4" d="M739.9,536.27c-31.2,0-58.2,16.8-64.8,57s0,78.6,27.6,79.8,31.2,0,37.2,0"/><path class="cls-4" d="M739.9,1160.67c-54,0-90.6-33.6-95.4-90s16.8-139.8,95.4-147"/><path class="cls-5" d="M610.06,283.13q3.81,6.5,7.2,13.16"/><path class="cls-6" d="M619.94,301.69c21.6,45,28.73,94.33,10.34,136.78"/><path class="cls-5" d="M629.05,441.22a123,123,0,0,1-7.11,13.19"/><line class="cls-5" x1="700.31" y1="545.28" x2="624.1" y2="469.07"/><line class="cls-5" x1="673" y1="798.27" x2="642.7" y2="798.27"/><line class="cls-5" x1="633.7" y1="798.27" x2="522.1" y2="798.27"/><line class="cls-5" x1="513.3" y1="794.67" x2="452.4" y2="733.77"/><line class="cls-7" x1="446.92" y1="728.1" x2="365.35" y2="646.41"/><line class="cls-5" x1="664.21" y1="749.18" x2="646.39" y2="731.36"/><line class="cls-5" x1="639.91" y1="724.88" x2="557.5" y2="642.47"/><line class="cls-5" x1="553.3" y1="632.67" x2="553.3" y2="528.27"/><line class="cls-7" x1="553.3" y1="519.97" x2="553.37" y2="404.53"/><line class="cls-5" x1="664.21" y1="847.96" x2="646.39" y2="865.78"/><line class="cls-5" x1="639.61" y1="872.56" x2="526" y2="986.17"/><line class="cls-5" x1="522.77" y1="994.73" x2="522.77" y2="1099.13"/><line class="cls-7" x1="522.77" y1="1107.43" x2="522.7" y2="1222.87"/><ellipse class="cls-8" cx="701" cy="608" rx="14" ry="20"/><line class="cls-4" x1="649.9" y1="1010" x2="739.9" y2="1010"/><line class="cls-4" x1="649.9" y1="1076" x2="739.9" y2="1076"/><rect x="760" y="697" width="35" height="14"/><rect x="760" y="725" width="35" height="14"/><rect x="760" y="753" width="35" height="14"/><path d="M778,697c7.06,9.35,11.59,20.27,11.59,35.15,0,25.37-13.14,39.24-29.6,53.38v25.86c2.07-1.78,4.19-3.56,6.35-5.37,20.15-16.93,43-36.12,43-73.87A75.55,75.55,0,0,0,801.22,697Z"/><rect x="760" y="886" width="35" height="14"/><rect x="760" y="858" width="35" height="14"/><rect x="760" y="830" width="35" height="14"/><path d="M778,900c7.06-9.35,11.59-20.27,11.59-35.15,0-25.37-13.14-39.24-29.6-53.38V785.61c2.07,1.78,4.19,3.56,6.35,5.37,20.15,16.93,43,36.12,43,73.87A75.55,75.55,0,0,1,801.22,900Z"/><rect class="cls-8" x="705" y="697" width="35" height="14"/><rect class="cls-8" x="705" y="725" width="35" height="14"/><rect class="cls-8" x="705" y="753" width="35" height="14"/><path class="cls-8" d="M722,697c-7.06,9.35-11.59,20.27-11.59,35.15,0,25.37,13.14,39.24,29.6,53.38v25.86c-2.07-1.78-4.19-3.56-6.35-5.37-20.15-16.93-43-36.12-43-73.87A75.55,75.55,0,0,1,698.78,697Z"/><rect class="cls-8" x="705" y="886" width="35" height="14"/><rect class="cls-8" x="705" y="858" width="35" height="14"/><rect class="cls-8" x="705" y="830" width="35" height="14"/><path class="cls-8" d="M722,900c-7.06-9.35-11.59-20.27-11.59-35.15,0-25.37,13.14-39.24,29.6-53.38V785.61c-2.07,1.78-4.19,3.56-6.35,5.37-20.15,16.93-43,36.12-43,73.87A75.55,75.55,0,0,0,698.78,900Z"/></svg>